<svg width="1786.502" height="291.003" viewBox="0 0 1786.502 291.003" xmlns="http://www.w3.org/2000/svg"><g id="svgGroup" stroke-linecap="round" fill-rule="nonzero" font-size="9pt" stroke="#000000" stroke-width=".5" fill="#000000" style="stroke:#000000;stroke-width:.5;fill:#000000"><path d="M 894.902 125.403 L 894.902 206.703 A 55.846 55.846 0 0 0 895.521 215.604 Q 896.199 219.75 897.621 222.289 A 9.958 9.958 0 0 0 898.652 223.803 A 12.725 12.725 0 0 0 906.402 227.859 A 28.901 28.901 0 0 0 911.702 228.303 L 911.702 234.603 A 834.283 834.283 0 0 0 905.275 234.312 Q 900.386 234.107 893.552 233.853 Q 881.402 233.403 869.702 233.403 Q 857.102 233.403 845.102 233.853 Q 833.102 234.303 827.102 234.603 L 827.102 228.303 Q 834.902 228.303 837.902 223.803 A 15.838 15.838 0 0 0 839.952 218.316 Q 840.65 214.993 840.835 210.288 A 91.311 91.311 0 0 0 840.902 206.703 L 840.902 109.203 A 34.528 34.528 0 0 0 839.873 100.209 A 20.47 20.47 0 0 0 839.402 98.703 Q 837.902 94.503 834.752 92.403 A 14.438 14.438 0 0 0 827.194 90.322 A 26.189 26.189 0 0 0 826.202 90.303 Q 820.802 90.303 815.852 93.003 Q 810.902 95.703 807.752 100.653 Q 804.602 105.603 804.602 111.903 L 804.602 206.703 Q 804.602 217.199 806.787 222.075 A 10.499 10.499 0 0 0 807.752 223.803 Q 810.902 228.303 818.402 228.303 L 818.402 234.603 Q 812.747 234.306 801.776 233.861 A 3481.844 3481.844 0 0 0 801.602 233.853 Q 790.502 233.403 778.802 233.403 Q 766.202 233.403 753.302 233.853 Q 742.216 234.24 735.783 234.516 A 777.869 777.869 0 0 0 733.802 234.603 L 733.802 228.303 A 23.912 23.912 0 0 0 742.017 227.071 A 11.142 11.142 0 0 0 746.852 223.803 A 14.649 14.649 0 0 0 749.543 217.805 Q 750.37 214.361 750.551 209.523 A 75.549 75.549 0 0 0 750.602 206.703 L 750.602 111.603 A 70.647 70.647 0 0 0 749.913 101.14 Q 749.027 95.282 747.002 91.653 A 12.722 12.722 0 0 0 736.519 85.346 A 24.889 24.889 0 0 0 733.802 85.203 L 733.802 78.903 Q 743.402 79.803 752.402 79.803 A 364.503 364.503 0 0 0 775.489 79.11 A 296.521 296.521 0 0 0 780.452 78.753 A 237.235 237.235 0 0 0 801.085 76.234 A 189.712 189.712 0 0 0 804.602 75.603 L 804.602 97.203 Q 811.802 85.203 823.952 79.953 A 64.752 64.752 0 0 1 843.04 75.166 A 89.62 89.62 0 0 1 852.302 74.703 A 80.187 80.187 0 0 1 864.298 75.513 A 39.53 39.53 0 0 1 874.052 78.153 A 35.247 35.247 0 0 1 883.867 84.257 A 23.776 23.776 0 0 1 886.202 86.703 A 31.505 31.505 0 0 1 891.85 97.596 A 49.123 49.123 0 0 1 892.802 101.103 A 73.889 73.889 0 0 1 894.309 110.925 Q 894.902 117.275 894.902 125.403 Z M 1266.002 125.403 L 1266.002 206.703 A 55.846 55.846 0 0 0 1266.621 215.604 Q 1267.299 219.75 1268.721 222.289 A 9.958 9.958 0 0 0 1269.752 223.803 A 12.725 12.725 0 0 0 1277.502 227.859 A 28.901 28.901 0 0 0 1282.802 228.303 L 1282.802 234.603 A 834.283 834.283 0 0 0 1276.375 234.312 Q 1271.486 234.107 1264.652 233.853 Q 1252.502 233.403 1240.802 233.403 Q 1228.202 233.403 1216.202 233.853 Q 1204.202 234.303 1198.202 234.603 L 1198.202 228.303 Q 1206.002 228.303 1209.002 223.803 A 15.838 15.838 0 0 0 1211.052 218.316 Q 1211.75 214.993 1211.935 210.288 A 91.311 91.311 0 0 0 1212.002 206.703 L 1212.002 109.203 A 34.528 34.528 0 0 0 1210.973 100.209 A 20.47 20.47 0 0 0 1210.502 98.703 Q 1209.002 94.503 1205.852 92.403 A 14.438 14.438 0 0 0 1198.294 90.322 A 26.189 26.189 0 0 0 1197.302 90.303 Q 1191.902 90.303 1186.952 93.003 Q 1182.002 95.703 1178.852 100.653 Q 1175.702 105.603 1175.702 111.903 L 1175.702 206.703 Q 1175.702 217.199 1177.887 222.075 A 10.499 10.499 0 0 0 1178.852 223.803 Q 1182.002 228.303 1189.502 228.303 L 1189.502 234.603 Q 1183.847 234.306 1172.876 233.861 A 3481.844 3481.844 0 0 0 1172.702 233.853 Q 1161.602 233.403 1149.902 233.403 Q 1137.302 233.403 1124.402 233.853 Q 1113.316 234.24 1106.883 234.516 A 777.869 777.869 0 0 0 1104.902 234.603 L 1104.902 228.303 A 23.912 23.912 0 0 0 1113.117 227.071 A 11.142 11.142 0 0 0 1117.952 223.803 A 14.649 14.649 0 0 0 1120.643 217.805 Q 1121.47 214.361 1121.651 209.523 A 75.549 75.549 0 0 0 1121.702 206.703 L 1121.702 111.603 A 70.647 70.647 0 0 0 1121.013 101.14 Q 1120.127 95.282 1118.102 91.653 A 12.722 12.722 0 0 0 1107.619 85.346 A 24.889 24.889 0 0 0 1104.902 85.203 L 1104.902 78.903 Q 1114.502 79.803 1123.502 79.803 A 364.503 364.503 0 0 0 1146.589 79.11 A 296.521 296.521 0 0 0 1151.552 78.753 A 237.235 237.235 0 0 0 1172.185 76.234 A 189.712 189.712 0 0 0 1175.702 75.603 L 1175.702 97.203 Q 1182.902 85.203 1195.052 79.953 A 64.752 64.752 0 0 1 1214.14 75.166 A 89.62 89.62 0 0 1 1223.402 74.703 A 80.187 80.187 0 0 1 1235.398 75.513 A 39.53 39.53 0 0 1 1245.152 78.153 A 35.247 35.247 0 0 1 1254.967 84.257 A 23.776 23.776 0 0 1 1257.302 86.703 A 31.505 31.505 0 0 1 1262.95 97.596 A 49.123 49.123 0 0 1 1263.902 101.103 A 73.889 73.889 0 0 1 1265.409 110.925 Q 1266.002 117.275 1266.002 125.403 Z M 401.702 75.603 L 401.702 201.903 Q 401.702 215.403 405.452 221.853 Q 409.202 228.303 418.502 228.303 L 418.502 234.603 Q 409.202 233.703 399.902 233.703 A 425.419 425.419 0 0 0 378.583 234.21 A 339.631 339.631 0 0 0 372.002 234.603 Q 359.102 235.503 347.702 237.903 L 347.702 216.303 Q 340.502 228.303 328.352 233.553 A 64.752 64.752 0 0 1 309.263 238.341 A 89.62 89.62 0 0 1 300.002 238.803 A 80.187 80.187 0 0 1 288.005 237.994 A 39.53 39.53 0 0 1 278.252 235.353 A 35.247 35.247 0 0 1 268.436 229.25 A 23.776 23.776 0 0 1 266.102 226.803 A 31.505 31.505 0 0 1 260.454 215.911 A 49.123 49.123 0 0 1 259.502 212.403 A 73.889 73.889 0 0 1 257.994 202.582 Q 257.402 196.232 257.402 188.103 L 257.402 111.603 A 70.647 70.647 0 0 0 256.713 101.14 Q 255.827 95.282 253.802 91.653 A 12.722 12.722 0 0 0 243.319 85.346 A 24.889 24.889 0 0 0 240.602 85.203 L 240.602 78.903 Q 250.202 79.803 259.202 79.803 A 364.503 364.503 0 0 0 282.289 79.11 A 296.521 296.521 0 0 0 287.252 78.753 A 237.235 237.235 0 0 0 307.885 76.234 A 189.712 189.712 0 0 0 311.402 75.603 L 311.402 204.303 A 34.528 34.528 0 0 0 312.43 213.298 A 20.47 20.47 0 0 0 312.902 214.803 Q 314.402 219.003 317.702 221.103 Q 321.002 223.203 326.102 223.203 Q 331.802 223.203 336.602 220.503 Q 341.402 217.803 344.552 212.853 Q 347.702 207.903 347.702 201.603 L 347.702 111.603 A 70.647 70.647 0 0 0 347.013 101.14 Q 346.127 95.282 344.102 91.653 A 12.722 12.722 0 0 0 333.619 85.346 A 24.889 24.889 0 0 0 330.902 85.203 L 330.902 78.903 Q 340.502 79.803 349.502 79.803 A 364.503 364.503 0 0 0 372.589 79.11 A 296.521 296.521 0 0 0 377.552 78.753 A 237.235 237.235 0 0 0 398.185 76.234 A 189.712 189.712 0 0 0 401.702 75.603 Z M 1611.902 141.903 L 1518.002 141.903 L 1517.402 136.203 L 1568.102 136.203 Q 1568.367 123.226 1567.229 112.002 A 157.344 157.344 0 0 0 1566.902 109.053 A 96.785 96.785 0 0 0 1564.8 97.222 A 50.895 50.895 0 0 0 1562.102 89.103 A 14.623 14.623 0 0 0 1557.918 83.251 A 7.706 7.706 0 0 0 1553.102 81.603 A 11.105 11.105 0 0 0 1544.344 86.338 Q 1542.047 89.183 1540.153 93.739 A 48.731 48.731 0 0 0 1539.902 94.353 Q 1535.697 104.866 1533.939 127.718 A 365.456 365.456 0 0 0 1533.302 138.003 L 1534.502 140.403 Q 1534.202 143.403 1534.202 146.403 L 1534.202 152.703 A 129.888 129.888 0 0 0 1534.94 167.146 Q 1536.17 178.091 1539.452 185.403 Q 1544.702 197.103 1552.652 201.603 Q 1560.602 206.103 1568.702 206.103 Q 1572.902 206.103 1578.752 204.903 A 35.344 35.344 0 0 0 1588.533 201.106 A 56.982 56.982 0 0 0 1591.502 199.353 A 44.187 44.187 0 0 0 1600.821 191.204 A 71.522 71.522 0 0 0 1605.002 186.003 L 1610.102 187.803 A 86.393 86.393 0 0 1 1600.471 208.689 A 106.941 106.941 0 0 1 1598.552 211.653 Q 1590.602 223.503 1578.002 231.153 A 52.769 52.769 0 0 1 1557.613 238.129 A 74.425 74.425 0 0 1 1547.402 238.803 A 79.594 79.594 0 0 1 1518.607 233.704 A 72.34 72.34 0 0 1 1512.452 231.003 A 53.787 53.787 0 0 1 1491.446 212.095 A 72.184 72.184 0 0 1 1487.402 205.203 Q 1480.549 191.941 1478.746 172 A 167.876 167.876 0 0 1 1478.102 156.903 A 133.276 133.276 0 0 1 1479.419 137.579 Q 1480.923 127.33 1484.146 118.875 A 66.568 66.568 0 0 1 1488.302 109.953 A 64.409 64.409 0 0 1 1508.975 87.288 A 62.308 62.308 0 0 1 1516.052 83.253 A 85.919 85.919 0 0 1 1548.551 74.912 A 104.586 104.586 0 0 1 1555.202 74.703 A 71.984 71.984 0 0 1 1573.42 76.876 A 49.487 49.487 0 0 1 1596.752 90.153 Q 1611.902 105.603 1611.902 141.903 Z M 654.602 132.003 L 654.602 105.303 Q 654.602 100.503 652.952 94.803 Q 651.302 89.103 646.802 84.903 A 16.238 16.238 0 0 0 637.765 81 A 31.599 31.599 0 0 0 633.302 80.703 Q 628.502 80.703 624.152 82.053 Q 619.802 83.403 616.502 85.803 A 36.332 36.332 0 0 1 627.346 91.863 A 24.17 24.17 0 0 1 631.802 96.753 Q 636.602 103.803 636.602 112.203 Q 636.602 124.203 628.202 131.103 Q 619.802 138.003 608.402 138.003 A 26.917 26.917 0 0 1 595.918 135.289 A 20.756 20.756 0 0 1 589.802 130.503 Q 583.202 123.003 583.202 111.903 A 26.587 26.587 0 0 1 587.255 97.023 A 23.153 23.153 0 0 1 587.852 96.153 A 38.632 38.632 0 0 1 596.814 87.513 A 61.935 61.935 0 0 1 601.802 84.303 Q 610.802 79.203 623.402 76.953 Q 636.002 74.703 649.802 74.703 A 127.446 127.446 0 0 1 673.113 76.732 A 105.657 105.657 0 0 1 677.102 77.553 Q 689.702 80.403 698.702 89.703 Q 705.002 96.303 706.802 106.203 A 104.788 104.788 0 0 1 708.138 117.33 Q 708.573 123.378 708.6 130.719 A 265.719 265.719 0 0 1 708.602 131.703 L 708.602 212.103 A 61.005 61.005 0 0 0 708.896 218.698 A 14.997 14.997 0 0 0 709.652 222.303 Q 710.702 225.003 713.402 225.003 Q 715.802 225.003 718.052 223.503 Q 720.302 222.003 722.402 220.503 L 725.402 225.603 A 41.258 41.258 0 0 1 709.658 233.832 A 54.292 54.292 0 0 1 709.052 234.003 Q 699.302 236.703 688.502 236.703 A 74.863 74.863 0 0 1 677.377 235.964 A 34.354 34.354 0 0 1 668.552 233.553 Q 661.502 230.403 658.652 225.153 Q 655.802 219.903 655.502 213.903 Q 649.202 223.803 639.752 230.253 A 36.76 36.76 0 0 1 625.036 235.906 A 59.514 59.514 0 0 1 615.002 236.703 A 55.07 55.07 0 0 1 601.105 235.088 A 34.931 34.931 0 0 1 591.902 231.303 Q 582.902 225.903 578.852 217.203 Q 574.802 208.503 574.802 198.903 A 40.861 40.861 0 0 1 576.811 185.58 A 27.882 27.882 0 0 1 580.502 178.353 Q 586.202 170.403 595.352 165.453 Q 604.502 160.503 614.702 157.203 Q 624.902 153.903 634.052 150.753 Q 643.202 147.603 648.902 143.253 Q 654.602 138.903 654.602 132.003 Z M 654.602 207.603 L 654.602 144.303 Q 652.502 148.203 649.052 151.953 Q 645.602 155.703 642.002 159.603 Q 638.402 163.503 635.252 168.003 Q 632.102 172.503 630.152 178.353 A 41.775 41.775 0 0 0 628.219 190.558 A 60.244 60.244 0 0 0 628.202 192.003 A 39.002 39.002 0 0 0 629.126 201.079 A 15.263 15.263 0 0 0 632.552 208.053 Q 636.902 212.703 643.502 212.703 Q 646.802 212.703 649.352 211.653 Q 651.902 210.603 654.602 207.603 Z M 501.002 113.703 L 501.002 203.703 A 46.646 46.646 0 0 0 501.917 213.534 Q 503.01 218.555 505.407 221.553 A 11.954 11.954 0 0 0 507.002 223.203 Q 513.002 228.303 526.802 228.303 L 526.802 234.603 Q 519.902 234.303 506.252 233.853 Q 492.602 233.403 478.202 233.403 Q 464.702 233.403 450.902 233.853 Q 439.042 234.24 432.279 234.516 A 779.589 779.589 0 0 0 430.202 234.603 L 430.202 228.303 A 23.912 23.912 0 0 0 438.417 227.071 A 11.142 11.142 0 0 0 443.252 223.803 A 14.649 14.649 0 0 0 445.943 217.805 Q 446.77 214.361 446.951 209.523 A 75.549 75.549 0 0 0 447.002 206.703 L 447.002 111.603 A 70.647 70.647 0 0 0 446.313 101.14 Q 445.427 95.282 443.402 91.653 A 12.722 12.722 0 0 0 432.919 85.346 A 24.889 24.889 0 0 0 430.202 85.203 L 430.202 78.903 Q 439.802 79.803 448.802 79.803 A 364.503 364.503 0 0 0 471.889 79.11 A 296.521 296.521 0 0 0 476.852 78.753 A 237.235 237.235 0 0 0 497.485 76.234 A 189.712 189.712 0 0 0 501.002 75.603 L 501.002 97.203 Q 504.902 89.403 510.602 84.453 Q 516.302 79.503 523.652 77.103 Q 531.002 74.703 539.702 74.703 A 34.661 34.661 0 0 1 550.333 76.175 A 20.001 20.001 0 0 1 556.502 79.353 Q 562.502 84.003 564.902 91.053 Q 567.302 98.103 567.302 105.003 A 34.707 34.707 0 0 1 564.813 118.597 A 25.566 25.566 0 0 1 559.652 126.453 A 26.384 26.384 0 0 1 539.894 134.403 A 37.895 37.895 0 0 1 539.702 134.403 A 40.799 40.799 0 0 1 528.427 132.996 A 22.023 22.023 0 0 1 519.752 128.403 Q 513.002 122.403 513.002 112.803 Q 513.002 102.603 517.352 96.003 Q 521.702 89.403 528.302 84.903 Q 522.902 84.903 518.702 87.003 Q 515.102 88.503 511.802 91.203 Q 508.502 93.903 506.102 97.353 Q 503.702 100.803 502.352 105.003 Q 501.002 109.203 501.002 113.703 Z M 140.51 20.299 A 116.744 116.744 0 0 1 172.802 30.903 Q 198.302 43.803 212.402 67.953 A 99.004 99.004 0 0 1 223.404 96.534 Q 226.502 110.432 226.502 126.603 A 134.702 134.702 0 0 1 223.745 154.396 A 106.123 106.123 0 0 1 212.102 185.403 Q 197.702 210.603 172.052 224.703 A 112.97 112.97 0 0 1 133.65 237.357 A 141.754 141.754 0 0 1 113.102 238.803 A 153.519 153.519 0 0 1 85.994 236.508 A 116.744 116.744 0 0 1 53.702 225.903 Q 28.202 213.003 14.102 188.703 Q 0.787 165.756 0.045 133.98 A 161.964 161.964 0 0 1 0.002 130.203 A 133.362 133.362 0 0 1 2.787 102.411 A 105.448 105.448 0 0 1 14.552 71.403 Q 29.102 46.203 54.602 32.103 A 111.761 111.761 0 0 1 92.388 19.522 A 141.095 141.095 0 0 1 113.402 18.003 A 153.519 153.519 0 0 1 140.51 20.299 Z M 112.202 23.403 A 31.569 31.569 0 0 0 89.323 33.351 A 47.982 47.982 0 0 0 86.102 36.903 A 72.284 72.284 0 0 0 76.816 51.801 Q 73.346 59.085 70.685 67.988 A 149.57 149.57 0 0 0 69.002 74.103 A 182.894 182.894 0 0 0 64.9 96.277 Q 63.476 107.659 63.12 120.377 A 308.384 308.384 0 0 0 63.002 129.003 A 249.955 249.955 0 0 0 64.14 153.479 Q 65.337 165.62 67.79 176.258 A 143.296 143.296 0 0 0 69.902 184.353 A 126.844 126.844 0 0 0 76.025 201.104 Q 79.868 209.571 84.632 215.966 A 59.489 59.489 0 0 0 88.502 220.653 A 43.064 43.064 0 0 0 99.998 229.805 A 30.217 30.217 0 0 0 114.302 233.403 A 31.569 31.569 0 0 0 137.18 223.456 A 47.982 47.982 0 0 0 140.402 219.903 Q 150.025 208.2 155.815 188.717 A 150.723 150.723 0 0 0 157.502 182.553 Q 162.904 161.079 163.442 133.889 A 307.584 307.584 0 0 0 163.502 127.803 A 256.059 256.059 0 0 0 162.531 104.952 Q 161.47 93.124 159.248 82.76 A 142.842 142.842 0 0 0 156.602 72.303 A 125.608 125.608 0 0 0 150.341 55.347 Q 146.448 46.884 141.618 40.5 A 59.645 59.645 0 0 0 138.002 36.153 A 43.064 43.064 0 0 0 126.506 27.002 A 30.217 30.217 0 0 0 112.202 23.403 Z M 1447.202 0.003 L 1447.202 201.603 Q 1447.202 215.103 1450.952 221.553 Q 1454.702 228.003 1464.002 228.003 L 1464.002 234.303 Q 1454.702 233.403 1445.402 233.403 A 425.419 425.419 0 0 0 1424.083 233.91 A 339.631 339.631 0 0 0 1417.502 234.303 Q 1404.602 235.203 1393.202 237.603 L 1393.202 36.003 A 70.647 70.647 0 0 0 1392.513 25.54 Q 1391.627 19.682 1389.602 16.053 A 12.722 12.722 0 0 0 1379.119 9.746 A 24.889 24.889 0 0 0 1376.402 9.603 L 1376.402 3.303 Q 1386.002 4.203 1395.002 4.203 A 364.503 364.503 0 0 0 1418.089 3.51 A 296.521 296.521 0 0 0 1423.052 3.153 A 237.235 237.235 0 0 0 1443.685 0.634 A 189.712 189.712 0 0 0 1447.202 0.003 Z M 1400.102 87.903 Q 1393.202 81.003 1384.202 77.853 A 50.98 50.98 0 0 0 1375.86 75.756 A 83.5 83.5 0 0 0 1362.002 74.703 A 82.866 82.866 0 0 0 1353.452 75.134 A 63.676 63.676 0 0 0 1326.902 83.703 A 54.522 54.522 0 0 0 1316.406 91.891 A 63.924 63.924 0 0 0 1303.652 110.553 A 73.487 73.487 0 0 0 1300.615 118.272 Q 1297.861 126.582 1296.562 136.557 A 148.541 148.541 0 0 0 1295.402 155.703 Q 1295.402 185.103 1303.502 203.403 A 74.341 74.341 0 0 0 1309.135 213.889 A 52.119 52.119 0 0 0 1325.552 230.253 Q 1339.502 238.803 1356.602 238.803 A 54.527 54.527 0 0 0 1363.671 238.364 A 35.855 35.855 0 0 0 1378.502 233.253 A 35.56 35.56 0 0 0 1384.285 228.628 A 49.195 49.195 0 0 0 1393.202 216.303 L 1393.202 201.603 Q 1393.202 210.903 1386.602 217.053 Q 1380.002 223.203 1371.602 223.203 A 10.295 10.295 0 0 1 1368.462 222.714 A 15.295 15.295 0 0 1 1361.552 217.653 A 18.032 18.032 0 0 1 1359.872 215.249 Q 1358.101 212.254 1356.663 207.719 A 85.602 85.602 0 0 1 1354.202 197.553 Q 1352.345 187.55 1351.765 171.946 A 414.716 414.716 0 0 1 1351.502 156.603 Q 1351.502 120.003 1358.402 102.303 A 40.99 40.99 0 0 1 1362.898 93.648 A 19.088 19.088 0 0 1 1379.102 84.603 Q 1383.302 84.603 1388.102 86.253 Q 1392.902 87.903 1396.802 91.203 L 1400.102 87.903 Z M 221.702 223.803 L 227.402 225.303 A 143.033 143.033 0 0 1 224.48 245.385 A 101.851 101.851 0 0 1 220.502 258.903 A 55.996 55.996 0 0 1 213.339 272.5 A 38.205 38.205 0 0 1 205.502 280.503 Q 198.902 285.603 188.702 288.303 Q 178.502 291.003 168.002 291.003 Q 151.202 291.003 134.852 286.053 Q 118.502 281.103 102.152 273.753 Q 85.802 266.403 68.402 259.203 Q 66.602 258.603 64.502 257.853 Q 62.402 257.103 61.202 257.103 Q 55.502 260.403 48.752 262.503 Q 42.002 264.603 36.002 264.603 A 22.232 22.232 0 0 1 26.466 262.758 A 15.318 15.318 0 0 1 25.952 262.503 Q 21.902 260.403 21.902 255.603 A 8.167 8.167 0 0 1 28.509 247.557 Q 31.624 246.539 36.208 246.348 A 52.729 52.729 0 0 1 38.402 246.303 A 51.031 51.031 0 0 1 54.057 248.973 A 75.412 75.412 0 0 1 61.202 251.703 A 140.545 140.545 0 0 0 75.388 247.224 A 94.252 94.252 0 0 0 80.852 244.953 Q 89.102 241.203 97.802 237.903 A 65.17 65.17 0 0 1 111.117 234.553 A 99.798 99.798 0 0 1 118.802 233.703 L 119.102 238.503 A 73.862 73.862 0 0 0 105.777 240.883 A 50.548 50.548 0 0 0 102.452 241.953 Q 95.402 244.503 88.352 247.503 A 126.029 126.029 0 0 1 76.342 251.835 A 185.54 185.54 0 0 1 71.702 253.203 A 81499.512 81499.512 0 0 1 90.06 253.632 Q 97.297 253.802 103.844 253.958 A 43464.747 43464.747 0 0 1 116.252 254.253 Q 131.095 254.61 143.495 254.12 A 302.547 302.547 0 0 0 149.852 253.803 Q 164.702 252.903 178.202 250.203 A 125.435 125.435 0 0 0 192.187 246.367 Q 199.272 243.932 204.452 240.903 A 49.61 49.61 0 0 0 218.313 228.518 A 68.369 68.369 0 0 0 221.702 223.803 Z M 1700.102 78.903 L 1700.102 85.203 A 14.328 14.328 0 0 0 1693.953 86.312 A 6.157 6.157 0 0 0 1691.852 87.903 A 4.09 4.09 0 0 0 1690.887 90.603 Q 1690.887 92.275 1692.019 94.399 A 16.835 16.835 0 0 0 1692.602 95.403 L 1770.902 213.303 Q 1773.602 217.203 1777.652 222.303 Q 1781.702 227.403 1786.502 228.303 L 1786.502 234.603 Q 1780.847 234.306 1769.876 233.861 A 3481.844 3481.844 0 0 0 1769.702 233.853 Q 1758.602 233.403 1747.202 233.403 Q 1735.202 233.403 1723.502 233.853 Q 1711.802 234.303 1705.802 234.603 L 1705.802 228.303 A 14.328 14.328 0 0 0 1711.95 227.195 A 6.157 6.157 0 0 0 1714.052 225.603 A 4.09 4.09 0 0 0 1715.016 222.903 Q 1715.016 221.232 1713.884 219.108 A 16.835 16.835 0 0 0 1713.302 218.103 L 1635.002 100.203 A 91.796 91.796 0 0 0 1629.581 92.476 A 47.526 47.526 0 0 0 1627.352 89.853 Q 1623.902 86.103 1619.402 85.203 L 1619.402 78.903 A 1122.984 1122.984 0 0 0 1626.383 79.195 Q 1631.645 79.4 1638.902 79.653 Q 1651.802 80.103 1664.702 80.103 Q 1675.202 80.103 1685.102 79.653 Q 1695.002 79.203 1700.102 78.903 Z M 1076.702 75.603 L 1076.702 206.703 A 55.846 55.846 0 0 0 1077.321 215.604 Q 1077.999 219.75 1079.421 222.289 A 9.958 9.958 0 0 0 1080.452 223.803 A 12.725 12.725 0 0 0 1088.202 227.859 A 28.901 28.901 0 0 0 1093.502 228.303 L 1093.502 234.603 Q 1087.9 234.323 1077.069 233.913 A 3656.49 3656.49 0 0 0 1075.502 233.853 Q 1063.502 233.403 1050.902 233.403 Q 1038.302 233.403 1025.402 233.853 Q 1014.316 234.24 1007.883 234.516 A 777.869 777.869 0 0 0 1005.902 234.603 L 1005.902 228.303 A 23.912 23.912 0 0 0 1014.117 227.071 A 11.142 11.142 0 0 0 1018.952 223.803 A 14.649 14.649 0 0 0 1021.643 217.805 Q 1022.47 214.361 1022.651 209.523 A 75.549 75.549 0 0 0 1022.702 206.703 L 1022.702 111.603 A 70.647 70.647 0 0 0 1022.013 101.14 Q 1021.127 95.282 1019.102 91.653 A 12.722 12.722 0 0 0 1008.619 85.346 A 24.889 24.889 0 0 0 1005.902 85.203 L 1005.902 78.903 Q 1015.502 79.803 1024.502 79.803 A 364.503 364.503 0 0 0 1047.589 79.11 A 296.521 296.521 0 0 0 1052.552 78.753 A 237.235 237.235 0 0 0 1073.185 76.234 A 189.712 189.712 0 0 0 1076.702 75.603 Z M 1650.602 204.003 L 1683.302 166.203 L 1683.602 167.853 L 1684.202 171.153 L 1684.502 172.803 L 1681.202 177.003 A 62.791 62.791 0 0 0 1673.652 188.963 A 37.837 37.837 0 0 0 1670.102 201.153 Q 1668.933 212.403 1674.594 219.81 A 22.514 22.514 0 0 0 1674.902 220.203 Q 1680.902 227.703 1691.402 228.603 L 1691.402 234.603 Q 1685.402 234.303 1675.802 234.153 Q 1666.202 234.003 1657.052 233.853 Q 1647.902 233.703 1642.502 233.703 Q 1635.902 233.703 1631.252 233.853 Q 1626.602 234.003 1622.402 234.603 L 1622.402 228.603 Q 1630.202 224.703 1636.652 218.853 A 125.609 125.609 0 0 0 1645.124 210.311 A 194.841 194.841 0 0 0 1650.602 204.003 Z M 1776.002 78.903 L 1776.002 84.903 A 50.541 50.541 0 0 0 1765.415 91.605 A 75.746 75.746 0 0 0 1762.352 94.203 A 133.827 133.827 0 0 0 1751.524 105.172 A 183.919 183.919 0 0 0 1747.802 109.503 L 1715.402 147.003 L 1715.102 145.353 L 1714.502 142.053 L 1714.202 140.403 L 1723.802 128.703 Q 1732.802 117.603 1734.602 108.003 A 27.106 27.106 0 0 0 1735.093 103.013 A 17.479 17.479 0 0 0 1731.602 92.103 Q 1726.802 85.803 1716.002 84.903 L 1716.002 78.903 Q 1725.302 79.203 1736.702 79.503 Q 1748.102 79.803 1755.902 79.803 A 199.108 199.108 0 0 0 1765.916 79.582 A 121.34 121.34 0 0 0 1767.302 79.503 Q 1772.102 79.203 1776.002 78.903 Z M 1060.592 1.328 A 30.324 30.324 0 0 1 1072.052 6.453 A 21.591 21.591 0 0 1 1080.451 22.491 A 35.296 35.296 0 0 1 1080.602 25.803 A 27.118 27.118 0 0 1 1078.117 37.837 A 20.151 20.151 0 0 1 1072.052 45.153 A 30.826 30.826 0 0 1 1059.809 50.456 A 56.683 56.683 0 0 1 1047.902 51.603 A 55.508 55.508 0 0 1 1035.212 50.279 A 30.324 30.324 0 0 1 1023.752 45.153 A 21.591 21.591 0 0 1 1015.353 29.116 A 35.296 35.296 0 0 1 1015.202 25.803 A 27.118 27.118 0 0 1 1017.686 13.77 A 20.151 20.151 0 0 1 1023.752 6.453 A 30.826 30.826 0 0 1 1035.994 1.151 A 56.683 56.683 0 0 1 1047.902 0.003 A 55.508 55.508 0 0 1 1060.592 1.328 Z M 969.655 188.766 A 26.147 26.147 0 0 1 979.202 193.653 A 21.612 21.612 0 0 1 986.667 207.939 A 36.64 36.64 0 0 1 987.002 213.003 A 29.771 29.771 0 0 1 984.928 224.592 A 19.914 19.914 0 0 1 979.202 232.353 A 27.815 27.815 0 0 1 966.437 238.006 A 48.82 48.82 0 0 1 957.302 238.803 A 46.362 46.362 0 0 1 945.285 237.386 A 25.66 25.66 0 0 1 935.252 232.353 A 21.627 21.627 0 0 1 927.974 218.383 A 36.982 36.982 0 0 1 927.602 213.003 A 30.307 30.307 0 0 1 929.628 201.434 A 19.896 19.896 0 0 1 935.252 193.653 A 26.773 26.773 0 0 1 947.266 188.149 A 49.177 49.177 0 0 1 957.302 187.203 A 44.607 44.607 0 0 1 969.655 188.766 Z"/></g></svg>
